<svg width="78" height="48" viewBox="0 0 78 48" fill="none" xmlns="http://www.w3.org/2000/svg">
<path d="M67.361 29.7542C65.3203 29.7542 63.5035 29.3187 61.9108 28.4476C60.3181 27.5517 59.0613 26.3323 58.1405 24.7893C57.2197 23.2463 56.7593 21.4918 56.7593 19.5258C56.7593 17.5349 57.2197 15.7804 58.1405 14.2623C59.0613 12.7193 60.3181 11.5123 61.9108 10.6413C63.5035 9.77023 65.3203 9.33472 67.361 9.33472C69.4266 9.33472 71.2557 9.77023 72.8485 10.6413C74.4661 11.5123 75.7229 12.7069 76.6188 14.2249C77.5396 15.743 78 17.51 78 19.5258C78 21.4918 77.5396 23.2463 76.6188 24.7893C75.7229 26.3323 74.4661 27.5517 72.8485 28.4476C71.2557 29.3187 69.4266 29.7542 67.361 29.7542ZM67.361 25.7599C68.5058 25.7599 69.5261 25.511 70.422 25.0133C71.318 24.5156 72.0148 23.7938 72.5125 22.8482C73.0351 21.9025 73.2964 20.795 73.2964 19.5258C73.2964 18.2317 73.0351 17.1242 72.5125 16.2034C72.0148 15.2577 71.318 14.536 70.422 14.0383C69.5261 13.5406 68.5182 13.2917 67.3983 13.2917C66.2535 13.2917 65.2332 13.5406 64.3373 14.0383C63.4662 14.536 62.7694 15.2577 62.2468 16.2034C61.7242 17.1242 61.4628 18.2317 61.4628 19.5258C61.4628 20.795 61.7242 21.9025 62.2468 22.8482C62.7694 23.7938 63.4662 24.5156 64.3373 25.0133C65.2332 25.511 66.2411 25.7599 67.361 25.7599Z" fill="white"/>
<path d="M46.8751 9.33472C48.4678 9.33472 49.8863 9.6458 51.1307 10.268C52.3999 10.8901 53.3954 11.8483 54.1171 13.1424C54.8388 14.4116 55.1996 16.0541 55.1996 18.0699V29.4929H50.5334V18.6672C50.5334 16.9002 50.1103 15.5813 49.2642 14.7102C48.4429 13.8392 47.2857 13.4037 45.7925 13.4037C44.6975 13.4037 43.7269 13.6277 42.8808 14.0756C42.0346 14.5236 41.3751 15.1955 40.9023 16.0914C40.4543 16.9625 40.2303 18.0699 40.2303 19.4138V29.4929H35.5641V9.55869H40.0064V14.9342L39.2224 13.2917C39.9192 12.0225 40.9272 11.0519 42.2461 10.38C43.59 9.68313 45.133 9.33472 46.8751 9.33472Z" fill="white"/>
<path d="M27.7598 29.493V9.55884H32.426V29.493H27.7598ZM30.1116 6.27381C29.2405 6.27381 28.5188 6.00005 27.9464 5.45255C27.3989 4.90504 27.1252 4.24555 27.1252 3.47406C27.1252 2.67769 27.3989 2.01819 27.9464 1.49557C28.5188 0.948068 29.2405 0.674316 30.1116 0.674316C30.9826 0.674316 31.6919 0.935626 32.2394 1.45824C32.8118 1.95598 33.098 2.59059 33.098 3.36207C33.098 4.18333 32.8242 4.88015 32.2767 5.45255C31.7292 6.00005 31.0075 6.27381 30.1116 6.27381Z" fill="white"/>
<path d="M15.4855 29.4929V9.55869H19.9277V15.0462L19.4051 13.441C20.0024 12.0971 20.9356 11.0768 22.2049 10.38C23.499 9.68313 25.1042 9.33472 27.0204 9.33472V13.777C26.8213 13.7272 26.6347 13.7023 26.4605 13.7023C26.2863 13.6774 26.1121 13.665 25.9379 13.665C24.1709 13.665 22.7648 14.1876 21.7196 15.2328C20.6743 16.2532 20.1517 17.7837 20.1517 19.8244V29.4929H15.4855Z" fill="white"/>
<path fill-rule="evenodd" clip-rule="evenodd" d="M7.95128 23.0141H3.28503V13.4413H0V9.7083H3.28503V5.15405H7.95128V9.7083H13.2895V13.4413H7.95128V23.0141Z" fill="white"/>
<path d="M30.0192 32.7974C30.0192 39.4804 24.5494 44.8981 17.8021 44.8981C11.0548 44.8981 5.58496 39.4804 5.58496 32.7974" stroke="white" stroke-width="4.65415"/>
<rect x="3.2579" y="23.0142" width="4.65415" height="6.5158" fill="white"/>
</svg>
