<svg width="103" height="62" viewBox="0 0 103 62" fill="none" xmlns="http://www.w3.org/2000/svg">
<path d="M88.7912 38.3315C86.1013 38.3315 83.7066 37.7574 81.6071 36.6093C79.5077 35.4283 77.8511 33.8209 76.6373 31.7871C75.4236 29.7532 74.8167 27.4406 74.8167 24.849C74.8167 22.2247 75.4236 19.912 76.6373 17.911C77.8511 15.8771 79.5077 14.2861 81.6071 13.138C83.7066 11.9898 86.1013 11.4158 88.7912 11.4158C91.5139 11.4158 93.925 11.9898 96.0245 13.138C98.1568 14.2861 99.8134 15.8607 100.994 17.8618C102.208 19.8628 102.815 22.1919 102.815 24.849C102.815 27.4406 102.208 29.7532 100.994 31.7871C99.8134 33.8209 98.1568 35.4283 96.0245 36.6093C93.925 37.7574 91.5139 38.3315 88.7912 38.3315ZM88.7912 33.0665C90.3002 33.0665 91.6452 32.7384 92.8261 32.0823C94.0071 31.4262 94.9256 30.4749 95.5816 29.2284C96.2705 27.9818 96.615 26.522 96.615 24.849C96.615 23.1432 96.2705 21.6834 95.5816 20.4697C94.9256 19.2231 94.0071 18.2718 92.8261 17.6157C91.6452 16.9597 90.3166 16.6316 88.8404 16.6316C87.3314 16.6316 85.9865 16.9597 84.8055 17.6157C83.6574 18.2718 82.7389 19.2231 82.05 20.4697C81.3611 21.6834 81.0166 23.1432 81.0166 24.849C81.0166 26.522 81.3611 27.9818 82.05 29.2284C82.7389 30.4749 83.6574 31.4262 84.8055 32.0823C85.9865 32.7384 87.315 33.0665 88.7912 33.0665Z" fill="#45AC5D"/>
<path d="M61.7879 11.4158C63.8874 11.4158 65.7572 11.8258 67.3974 12.6459C69.0704 13.466 70.3826 14.729 71.3339 16.4348C72.2852 18.1078 72.7609 20.2729 72.7609 22.93V37.9871H66.6101V23.7173C66.6101 21.3882 66.0525 19.6496 64.9371 18.5014C63.8546 17.3533 62.3292 16.7792 60.3609 16.7792C58.9176 16.7792 57.6382 17.0745 56.5229 17.6649C55.4075 18.2554 54.5382 19.1411 53.9149 20.3221C53.3245 21.4702 53.0292 22.93 53.0292 24.7014V37.9871H46.8785V11.711H52.734V18.7967L51.7007 16.6316C52.6192 14.9586 53.9478 13.6793 55.6864 12.7935C57.4578 11.875 59.4916 11.4158 61.7879 11.4158Z" fill="#45AC5D"/>
<path d="M36.5913 37.9871V11.711H42.742V37.9871H36.5913ZM39.6912 7.38091C38.5431 7.38091 37.5918 7.02007 36.8373 6.29838C36.1156 5.57669 35.7548 4.70738 35.7548 3.69046C35.7548 2.64073 36.1156 1.77142 36.8373 1.08253C37.5918 0.360844 38.5431 0 39.6912 0C40.8394 0 41.7743 0.344442 42.496 1.03333C43.2505 1.68941 43.6277 2.52591 43.6277 3.54284C43.6277 4.62537 43.2669 5.54388 42.5452 6.29838C41.8235 7.02007 40.8722 7.38091 39.6912 7.38091Z" fill="#45AC5D"/>
<path d="M20.412 37.9871V11.711H26.2676V18.9443L25.5787 16.8284C26.366 15.057 27.5961 13.7121 29.2691 12.7935C30.975 11.875 33.0908 11.4158 35.6167 11.4158V17.2713C35.3543 17.2057 35.1083 17.1729 34.8786 17.1729C34.649 17.1401 34.4194 17.1237 34.1898 17.1237C31.8607 17.1237 30.0072 17.8126 28.6295 19.1903C27.2517 20.5353 26.5628 22.5527 26.5628 25.2427V37.9871H20.412Z" fill="#45AC5D"/>
<path fill-rule="evenodd" clip-rule="evenodd" d="M10.4809 29.4471H4.33014V16.8285H0V11.9079H4.33014V5.90479H10.4809V11.9079H17.5174V16.8285H10.4809V29.4471Z" fill="#45AC5D"/>
<path d="M39.5696 42.343C39.5696 51.1522 32.3596 58.2935 23.4657 58.2935C14.5717 58.2935 7.36179 51.1522 7.36179 42.343" stroke="#45AC5D" stroke-width="6.13482"/>
<rect x="4.29437" y="29.447" width="6.13482" height="8.58874" fill="#45AC5D"/>
</svg>
